<svg xmlns="http://www.w3.org/2000/svg" width="304.298" height="184.365" viewBox="0 0 304.298 184.365">
  <g id="Group_5" data-name="Group 5" transform="translate(0 0.005)">
    <circle id="Ellipse_1" data-name="Ellipse 1" cx="15.682" cy="15.682" r="15.682" transform="translate(9.51 8.632)" fill="#f4392f"/>
    <ellipse id="Ellipse_2" data-name="Ellipse 2" cx="151.363" cy="6.136" rx="151.363" ry="6.136" transform="translate(0 172.087)" fill="#e6e6e6"/>
    <circle id="Ellipse_3" data-name="Ellipse 3" cx="38.522" cy="38.522" r="38.522" transform="translate(0 24.276)" fill="#287bf9"/>
    <path id="Path_1" data-name="Path 1" d="M108.637,289.034h-7.89l3.6-121.833Z" transform="translate(-66.402 -110.204)" fill="#3f3d56"/>
    <path id="Path_2" data-name="Path 2" d="M111.321,212.276l8.47-11.719-8.586,14.62-.928-1.624Z" transform="translate(-72.683 -132.189)" fill="#3f3d56"/>
    <path id="Path_3" data-name="Path 3" d="M94.241,246.993l-8.47-11.719,8.586,14.62.928-1.624Z" transform="translate(-56.531 -155.071)" fill="#3f3d56"/>
    <path id="Path_4" data-name="Path 4" d="M812.251,289.41h-7.89l3.6-121.833Z" transform="translate(-530.149 -110.452)" fill="#3f3d56"/>
    <path id="Path_5" data-name="Path 5" d="M814.935,212.652l8.47-11.719-8.586,14.62-.928-1.624Z" transform="translate(-536.43 -132.437)" fill="#3f3d56"/>
    <path id="Path_6" data-name="Path 6" d="M797.855,247.369l-8.47-11.719,8.586,14.62.928-1.624Z" transform="translate(-520.279 -155.319)" fill="#3f3d56"/>
    <circle id="Ellipse_4" data-name="Ellipse 4" cx="71.762" cy="71.762" r="71.762" transform="translate(84.733 35.413)" fill="#3f3d56"/>
    <circle id="Ellipse_5" data-name="Ellipse 5" cx="65.821" cy="65.821" r="65.821" transform="translate(90.674 41.354)" fill="#fff"/>
    <circle id="Ellipse_6" data-name="Ellipse 6" cx="8.792" cy="8.792" r="8.792" transform="translate(147.465 98.621)" fill="#3f3d56"/>
    <rect id="Rectangle_21" data-name="Rectangle 21" width="3.802" height="7.129" transform="translate(154.356 44.681)" fill="#3f3d56"/>
    <rect id="Rectangle_22" data-name="Rectangle 22" width="3.802" height="7.129" transform="translate(154.356 163.017)" fill="#3f3d56"/>
    <rect id="Rectangle_23" data-name="Rectangle 23" width="3.802" height="7.129" transform="translate(100.654 105.512) rotate(90)" fill="#3f3d56"/>
    <rect id="Rectangle_24" data-name="Rectangle 24" width="3.802" height="7.129" transform="translate(218.99 105.512) rotate(90)" fill="#3f3d56"/>
    <path id="Path_7" data-name="Path 7" d="M450.924,311.922l3.249-7.429,40.713,22.548Z" transform="translate(-297.201 -200.693)" fill="#3f3d56"/>
    <rect id="Rectangle_25" data-name="Rectangle 25" width="18.535" height="21.386" transform="translate(147.228 18.067)" fill="#3f3d56"/>
    <ellipse id="Ellipse_7" data-name="Ellipse 7" cx="21.386" cy="5.941" rx="21.386" ry="5.941" transform="translate(135.109 12.126)" fill="#3f3d56"/>
    <path id="Path_8" data-name="Path 8" d="M716.857,528.068l-1.188,1.663s-5.465,6.416-5.7,3.327,4.04-5.228,4.04-5.228l2.376-1.426Z" transform="translate(-520.323 -408.179)" fill="#ffb8b8"/>
    <path id="Path_9" data-name="Path 9" d="M826.118,547.2l.995,1.786s3.46,7.685.566,6.578-3-5.888-3-5.888l-.272-2.758Z" transform="translate(-595.759 -421.699)" fill="#ffb8b8"/>
    <circle id="Ellipse_8" data-name="Ellipse 8" cx="7.235" cy="7.235" r="7.235" transform="translate(217.774 79.366)" fill="#2f2e41"/>
    <path id="Path_10" data-name="Path 10" d="M811.751,607.261l.951,6.178v1.9h5.465v-2.376s.238-4.277-.713-5.465S811.751,607.261,811.751,607.261Z" transform="translate(-587.415 -461.234)" fill="#ffb8b8"/>
    <path id="Path_11" data-name="Path 11" d="M783.173,607.261l.95,6.178v1.9h5.465v-2.376s.238-4.277-.713-5.465S783.173,607.261,783.173,607.261Z" transform="translate(-568.579 -461.234)" fill="#ffb8b8"/>
    <path id="Path_12" data-name="Path 12" d="M791.7,462.384s-2.1,1.108-.666,3.628,9.86,28.594,9.86,28.594l4.86-1.38-4.286-16.49-2.454-10.364Z" transform="translate(-573.432 -365.984)" fill="#287bf9"/>
    <circle id="Ellipse_9" data-name="Ellipse 9" cx="5.465" cy="5.465" r="5.465" transform="translate(218.752 83.175)" fill="#ffb8b8"/>
    <path id="Path_13" data-name="Path 13" d="M807.7,442.063l-.713,11.168-4.99-3.564s1.663-6.653,1.188-7.129Z" transform="translate(-580.983 -352.591)" fill="#ffb8b8"/>
    <path id="Path_14" data-name="Path 14" d="M796.522,463.566l-5.376-3.981s-2.466-1.009-3.179.179-4.277,18.772-2.376,22.1c0,0,10.218,2.139,12.356.95l.951-6.178s1.188-3.8-.713-6.178Z" transform="translate(-569.81 -363.876)" fill="#287bf9"/>
    <path id="Path_15" data-name="Path 15" d="M749.113,460.76s-1.9-1.426-3.564.951-21.624,21.148-21.624,21.148l3.327,3.8,13.069-10.931,8.317-6.653Z" transform="translate(-529.529 -364.634)" fill="#287bf9"/>
    <path id="Path_16" data-name="Path 16" d="M794.635,525.816s-11.762-2.257-12.951-.594l-.238,2.614s-2.614,4.99-1.188,13.069.475,13.069.475,13.069a52.549,52.549,0,0,1,11.168,0c4.752.713,5.465,0,5.465,0Z" transform="translate(-566.378 -406.997)" fill="#2f2e41"/>
    <path id="Path_17" data-name="Path 17" d="M818.642,628.868l-6.891.238,2.376,17.822s-1.9,7.6.238,8.079a24.1,24.1,0,0,0,4.515.475s2.139,2.139,4.515,1.9a13.308,13.308,0,0,0,4.515-1.426,1.477,1.477,0,0,0-1.188-1.9c-1.663-.475-6.178-1.9-7.129-6.891Z" transform="translate(-587.415 -475.713)" fill="#2f2e41"/>
    <path id="Path_18" data-name="Path 18" d="M790.064,628.868l-6.891.238,2.376,17.822s-1.9,7.6.238,8.079a24.1,24.1,0,0,0,4.515.475s2.139,2.139,4.515,1.9a13.306,13.306,0,0,0,4.515-1.426,1.477,1.477,0,0,0-1.188-1.9c-1.663-.475-6.178-1.9-7.129-6.891Z" transform="translate(-568.579 -475.713)" fill="#2f2e41"/>
    <circle id="Ellipse_10" data-name="Ellipse 10" cx="2.994" cy="2.994" r="2.994" transform="translate(224.547 75.992)" fill="#2f2e41"/>
    <path id="Path_19" data-name="Path 19" d="M827.676,400.757a2.994,2.994,0,0,0-2.682-2.978,3.036,3.036,0,0,1,.312-.016,2.994,2.994,0,1,1,0,5.988,3.026,3.026,0,0,1-.312-.016A2.994,2.994,0,0,0,827.676,400.757Z" transform="translate(-596.143 -323.393)" fill="#2f2e41"/>
    <ellipse id="Ellipse_11" data-name="Ellipse 11" cx="4.99" cy="2.994" rx="4.99" ry="2.994" transform="translate(219.178 82.073)" fill="#2f2e41"/>
    <path id="Path_20" data-name="Path 20" d="M930.019,193.965a15.231,15.231,0,0,0-29.883-3.211c-.185-.007-.369-.014-.555-.014a15.234,15.234,0,0,0-14.613,10.937,10.764,10.764,0,0,0-12.773,3.18h47.509A10.3,10.3,0,0,0,930.03,194.19Q930.026,194.078,930.019,193.965Z" transform="translate(-627.254 -179.599)" fill="#e6e6e6"/>
    <circle id="Ellipse_12" data-name="Ellipse 12" cx="4.091" cy="4.091" r="4.091" transform="translate(258.957 38.239)" fill="#e6e6e6"/>
    <circle id="Ellipse_13" data-name="Ellipse 13" cx="3.406" cy="3.406" r="3.406" transform="translate(271.994 29.278)" fill="#e6e6e6"/>
    <circle id="Ellipse_14" data-name="Ellipse 14" cx="4.091" cy="4.091" r="4.091" transform="translate(287.934 47.102)" fill="#e6e6e6"/>
    <circle id="Ellipse_15" data-name="Ellipse 15" cx="4.091" cy="4.091" r="4.091" transform="translate(256.912 65.852)" fill="#e6e6e6"/>
    <circle id="Ellipse_16" data-name="Ellipse 16" cx="4.091" cy="4.091" r="4.091" transform="translate(287.934 89.375)" fill="#e6e6e6"/>
    <path id="Path_21" data-name="Path 21" d="M958.333,675c0-.044.007-.088.007-.132a6.459,6.459,0,0,0-12.893-.338c-.021,0-.041,0-.062,0a6.165,6.165,0,0,0,9.53,7.739A4.088,4.088,0,1,0,958.333,675Z" transform="translate(-672.791 -502.652)" fill="#e6e6e6"/>
    <circle id="Ellipse_17" data-name="Ellipse 17" cx="1.705" cy="1.705" r="1.705" transform="translate(294.07 75.398)" fill="#e6e6e6"/>
    <circle id="Ellipse_18" data-name="Ellipse 18" cx="1.705" cy="1.705" r="1.705" transform="translate(283.161 34.489)" fill="#e6e6e6"/>
    <circle id="Ellipse_19" data-name="Ellipse 19" cx="1.705" cy="1.705" r="1.705" transform="translate(277.366 76.761)" fill="#e6e6e6"/>
    <circle id="Ellipse_20" data-name="Ellipse 20" cx="1.705" cy="1.705" r="1.705" transform="translate(278.73 75.057)" fill="#e6e6e6"/>
    <circle id="Ellipse_21" data-name="Ellipse 21" cx="1.705" cy="1.705" r="1.705" transform="translate(279.752 73.352)" fill="#e6e6e6"/>
    <circle id="Ellipse_22" data-name="Ellipse 22" cx="1.705" cy="1.705" r="1.705" transform="translate(275.662 87.67)" fill="#e6e6e6"/>
    <circle id="Ellipse_23" data-name="Ellipse 23" cx="1.705" cy="1.705" r="1.705" transform="translate(300.889 106.761)" fill="#e6e6e6"/>
    <circle id="Ellipse_24" data-name="Ellipse 24" cx="1.705" cy="1.705" r="1.705" transform="translate(264.412 107.784)" fill="#e6e6e6"/>
    <circle id="Ellipse_25" data-name="Ellipse 25" cx="1.705" cy="1.705" r="1.705" transform="translate(266.457 55.284)" fill="#e6e6e6"/>
    <circle id="Ellipse_26" data-name="Ellipse 26" cx="1.705" cy="1.705" r="1.705" transform="translate(274.298 85.966)" fill="#e6e6e6"/>
    <circle id="Ellipse_27" data-name="Ellipse 27" cx="1.705" cy="1.705" r="1.705" transform="translate(272.593 83.238)" fill="#e6e6e6"/>
  </g>
</svg>
